<svg xmlns="http://www.w3.org/2000/svg" width="745.74" height="675.701" viewBox="0 0 745.74 675.701">
  <g id="Group_3" data-name="Group 3" transform="translate(-364.749 -3441.732)">
    <g id="undraw_fireworks_q-5-ji_1_" data-name="undraw_fireworks_q-5-ji (1)" transform="translate(102.643 3439.442)">
      <g id="Group_1" data-name="Group 1" transform="translate(814.166 195.461)" opacity="0.8">
        <path id="Path_42" data-name="Path 42" d="M708.62,253.18c-2.43-3.31-7.45.27-5.18,3.69.59.89,1.24,1.76,1.86,2.58,7.47,10.09,11.34,22.34,14.67,34.44.82,3,1.61,6.15.68,9.09,1.34-7.87.47-16-1.55-23.71a147.987,147.987,0,0,0-8.39-22.39,19.929,19.929,0,0,0-2.09-3.7Z" transform="translate(-635.575 -226.276)" fill="#316bff" opacity="0.5"/>
        <path id="Path_43" data-name="Path 43" d="M660.14,274.39c-5-.16-5.68,7.49-.66,7.89,1.32.1,2.64.13,3.91.17,15.43.42,30,6,44.05,12,3.44,1.47,7,3.13,9.07,6.29-6.32-7.33-14.65-12.7-23.5-16.65s-18.29-6.53-27.72-8.95a23.552,23.552,0,0,0-5.15-.75Z" transform="translate(-635.575 -226.276)" fill="#316bff"/>
        <path id="Path_44" data-name="Path 44" d="M661.53,293.18c-3.18.12-2.46,4.64.74,4.67.84,0,1.68,0,2.48-.07,9.73-.39,19.7,2.29,29.37,5.25,2.38.72,4.88,1.55,6.61,3.32a52.909,52.909,0,0,0-17.17-8.81,131.8,131.8,0,0,0-18.68-4.11A17.071,17.071,0,0,0,661.53,293.18Z" transform="translate(-635.575 -226.276)" fill="#316bff" opacity="0.2"/>
        <path id="Path_45" data-name="Path 45" d="M726.67,377.27c.9,3.05,5.1,1.24,4.33-1.88-.2-.81-.44-1.61-.67-2.38-2.8-9.33-2.67-19.65-2.21-29.76.12-2.47.29-5.11,1.58-7.22a52.937,52.937,0,0,0-4.27,18.82,131,131,0,0,0,.65,19.12,16.927,16.927,0,0,0,.59,3.3Z" transform="translate(-635.575 -226.276)" fill="#316bff" opacity="0.5"/>
        <path id="Path_46" data-name="Path 46" d="M667.33,248.93c-1.91-.33-2.06,2.46-.15,2.88.5.12,1,.2,1.49.28,5.86,1,11.47,3.87,16.87,6.87a9.16,9.16,0,0,1,3.53,2.82,32.21,32.21,0,0,0-9.14-7.44,79.224,79.224,0,0,0-10.63-4.83,10.359,10.359,0,0,0-1.97-.58Z" transform="translate(-635.575 -226.276)" fill="#316bff" opacity="0.2"/>
        <path id="Path_47" data-name="Path 47" d="M637.75,322.9c-4.86,2.5-.75,9.37,4.24,7.09,1.31-.6,2.58-1.27,3.8-1.9,14.86-7.7,32.11-10.54,49.09-12.72,4.16-.54,8.6-1,12.46.64-10.51-3-21.69-3.21-32.5-1.95s-21.32,4-31.73,6.82a28.222,28.222,0,0,0-5.36,2.02Z" transform="translate(-635.575 -226.276)" fill="#316bff"/>
        <path id="Path_48" data-name="Path 48" d="M651.64,349.63c-3.5,3.26,2,7.11,5.62,4,1-.82,1.87-1.68,2.75-2.5,10.64-10,24.71-17.11,38.72-23.66,3.44-1.61,17.59-3.26,21.37-3.17-9.87.89-30,4-39,8a216.305,216.305,0,0,0-25.42,14.27,26.936,26.936,0,0,0-4.04,3.06Z" transform="translate(-635.575 -226.276)" fill="#316bff" opacity="0.5"/>
        <path id="Path_49" data-name="Path 49" d="M676.56,392.31c-1,4.66,5.65,4.73,6.89.07.32-1.22.58-2.45.83-3.62,3.08-14.27,10.61-28.12,18.41-41.48,1.92-3.28,12.63-12.67,15.79-14.75-7.62,6.34-22.45,20.34-27.51,28.78a216.22,216.22,0,0,0-12.81,26.19,26.886,26.886,0,0,0-1.6,4.81Z" transform="translate(-635.575 -226.276)" fill="#316bff"/>
        <path id="Path_50" data-name="Path 50" d="M726.72,228.48c-2.38-4.86-9.18-.87-7,4.11.57,1.3,1.2,2.58,1.81,3.79,7.32,14.82,9.84,32,11.73,48.82.46,4.13.85,8.54-.83,12.34,3.07-10.38,3.48-21.46,2.42-32.19s-3.57-21.18-6.21-31.54a27.756,27.756,0,0,0-1.92-5.33Z" transform="translate(-635.575 -226.276)" fill="#316bff"/>
        <path id="Path_51" data-name="Path 51" d="M688.82,236.73a.78.78,0,0,0,.41.12c.26,0,.45-.26.56-.5.59-1.29.25-3,1.17-4.06a14,14,0,0,1,2.22,3.73l3.49-1.09a5.23,5.23,0,0,1-.66,4,5.28,5.28,0,0,1,1.64,1.11,1.81,1.81,0,0,1,.43,1.85,8.87,8.87,0,0,1-2.46.25,16,16,0,0,1-.27,4.58.85.85,0,0,1-.3.59c-.25.16-.59,0-.85-.14a8.16,8.16,0,0,1-2.87-3.05l-1.3,3.1a1.37,1.37,0,0,1-.58.78,1,1,0,0,1-1.09-.38,2.79,2.79,0,0,1-.38-1.17l-.49-3a.651.651,0,0,0-.16-.41.7.7,0,0,0-.51-.15c-1.24,0-2.47-.05-3.7,0-.21-.65.44-1.26,1.07-1.54s1.38-.48,1.7-1.09c.64-1.25-1-3-.32-4.06C686.4,235,687.74,236.2,688.82,236.73Z" transform="translate(-635.575 -226.276)" fill="#316bff"/>
        <path id="Path_52" data-name="Path 52" d="M756.21,253.18c2.43-3.31,7.44.27,5.18,3.69-.6.89-1.24,1.76-1.86,2.58-7.47,10.09-11.34,22.34-14.68,34.44-.82,3-1.61,6.15-.67,9.09-1.34-7.87-.47-16,1.55-23.71a146.5,146.5,0,0,1,8.38-22.39,20.568,20.568,0,0,1,2.1-3.7Z" transform="translate(-635.575 -226.276)" fill="#316bff" opacity="0.5"/>
        <path id="Path_53" data-name="Path 53" d="M804.68,274.39c5-.16,5.68,7.49.66,7.89-1.31.1-2.64.13-3.9.17-15.44.42-30,6-44.05,12-3.44,1.47-7.06,3.13-9.07,6.29,6.32-7.33,14.64-12.7,23.5-16.65s18.28-6.53,27.72-8.95a23.549,23.549,0,0,1,5.14-.75Z" transform="translate(-635.575 -226.276)" fill="#316bff"/>
        <path id="Path_54" data-name="Path 54" d="M803.29,293.18c3.19.12,2.47,4.64-.73,4.67-.84,0-1.68,0-2.48-.07-9.74-.39-19.7,2.29-29.37,5.25-2.38.72-4.89,1.55-6.61,3.32a52.909,52.909,0,0,1,17.17-8.81A131.8,131.8,0,0,1,800,293.43a17,17,0,0,1,3.29-.25Z" transform="translate(-635.575 -226.276)" fill="#316bff" opacity="0.5"/>
        <path id="Path_55" data-name="Path 55" d="M797.5,248.93c1.91-.33,2.06,2.46.15,2.88-.5.12-1,.2-1.49.28-5.86,1-11.48,3.87-16.88,6.87a9.13,9.13,0,0,0-3.52,2.82,32.17,32.17,0,0,1,9.13-7.44,79.913,79.913,0,0,1,10.64-4.83,10.363,10.363,0,0,1,1.97-.58Z" transform="translate(-635.575 -226.276)" fill="#316bff" opacity="0.2"/>
        <path id="Path_56" data-name="Path 56" d="M747.61,383.06c-.43,1.89-3.06.95-2.71-1,.09-.51.21-1,.32-1.48,1.33-5.8.85-12.08.17-18.22a9.2,9.2,0,0,0-1.25-4.34,32.37,32.37,0,0,1,3.35,11.3,79.938,79.938,0,0,1,.35,11.67A10.008,10.008,0,0,1,747.61,383.06Z" transform="translate(-635.575 -226.276)" fill="#316bff" opacity="0.2"/>
        <path id="Path_57" data-name="Path 57" d="M796.27,370.45c1.5,2.53-2.18,2.36-3.8-.18-.42-.66-.81-1.33-1.18-2-4.56-7.76-11.49-15.43-18.48-22.83a25.431,25.431,0,0,0-5.73-5,90.572,90.572,0,0,1,15,12.84c4.48,4.69,8.44,9.57,12.32,14.45a23.685,23.685,0,0,1,1.87,2.72Z" transform="translate(-635.575 -226.276)" fill="#316bff" opacity="0.5"/>
        <path id="Path_58" data-name="Path 58" d="M663.14,370.45c-1.5,2.53,2.18,2.36,3.79-.18.43-.66.82-1.33,1.19-2,4.56-7.76,11.49-15.43,18.48-22.83a25.21,25.21,0,0,1,5.73-5,90.155,90.155,0,0,0-15,12.84c-4.48,4.69-8.45,9.57-12.32,14.45a23.685,23.685,0,0,0-1.87,2.72Z" transform="translate(-635.575 -226.276)" fill="#316bff" opacity="0.2"/>
        <path id="Path_59" data-name="Path 59" d="M711.83,383.06c.43,1.89,3.06.95,2.71-1-.09-.51-.21-1-.32-1.48-1.33-5.8-.85-12.08-.17-18.22a9.2,9.2,0,0,1,1.25-4.34,32.37,32.37,0,0,0-3.35,11.3A79.946,79.946,0,0,0,711.6,381a10,10,0,0,0,.23,2.06Z" transform="translate(-635.575 -226.276)" fill="#316bff" opacity="0.2"/>
        <path id="Path_60" data-name="Path 60" d="M782.16,268c1.91-.34,2.06,2.46.15,2.88-.5.11-1,.19-1.49.28-5.86,1-11.47,3.87-16.88,6.86a9.32,9.32,0,0,0-3.52,2.83,32.422,32.422,0,0,1,9.14-7.45,80.5,80.5,0,0,1,10.63-4.83,10.33,10.33,0,0,1,1.97-.57Z" transform="translate(-635.575 -226.276)" fill="#316bff" opacity="0.2"/>
        <path id="Path_61" data-name="Path 61" d="M764.27,230.59c1.65-1,2.83,1.51,1.21,2.61-.42.29-.86.56-1.27.81-5.07,3.12-9.2,7.88-13.09,12.68a9.07,9.07,0,0,0-2.21,3.94,32.3,32.3,0,0,1,5.69-10.32,79.664,79.664,0,0,1,8.06-8.46,9.832,9.832,0,0,1,1.61-1.26Z" transform="translate(-635.575 -226.276)" fill="#316bff" opacity="0.2"/>
        <path id="Path_62" data-name="Path 62" d="M827.08,322.9c4.86,2.5.75,9.37-4.24,7.09-1.31-.6-2.59-1.27-3.8-1.9-14.86-7.7-32.12-10.54-49.09-12.72-4.16-.54-8.6-1-12.46.64,10.5-3,21.69-3.21,32.5-1.95s21.32,4,31.73,6.82a28.48,28.48,0,0,1,5.36,2.02Z" transform="translate(-635.575 -226.276)" fill="#316bff"/>
        <path id="Path_63" data-name="Path 63" d="M813.19,349.63c3.49,3.26-2,7.11-5.63,4-.95-.82-1.87-1.68-2.74-2.5-10.65-10-24.72-17.11-38.72-23.66-3.44-1.61-17.6-3.26-21.37-3.17,9.87.89,30,4,39,8a216.442,216.442,0,0,1,25.43,14.27,26.937,26.937,0,0,1,4.03,3.06Z" transform="translate(-635.575 -226.276)" fill="#316bff" opacity="0.5"/>
        <path id="Path_64" data-name="Path 64" d="M772,397.63c.43,4.76-6.21,4-6.85-.79-.17-1.25-.27-2.5-.37-3.69-1.27-14.55-7-29.24-13.07-43.46-1.49-3.49-10.94-14.16-13.82-16.61,6.77,7.24,19.73,23,23.69,32A215.876,215.876,0,0,1,771,392.66a27.515,27.515,0,0,1,1,4.97Z" transform="translate(-635.575 -226.276)" fill="#316bff"/>
        <path id="Path_65" data-name="Path 65" d="M776,236.73a.78.78,0,0,1-.41.12c-.27,0-.45-.26-.56-.5-.6-1.29-.25-3-1.17-4.06a14,14,0,0,0-2.22,3.73l-3.49-1.09a5.19,5.19,0,0,0,.66,4,5.329,5.329,0,0,0-1.65,1.11,1.83,1.83,0,0,0-.42,1.85,8.829,8.829,0,0,0,2.46.25,16.363,16.363,0,0,0,.26,4.58.89.89,0,0,0,.3.59.86.86,0,0,0,.86-.14,8.159,8.159,0,0,0,2.87-3.05l1.3,3.1a1.33,1.33,0,0,0,.58.78.93.93,0,0,0,1.08-.38,2.66,2.66,0,0,0,.39-1.17l.48-3a.721.721,0,0,1,.17-.41.7.7,0,0,1,.51-.15c1.23,0,2.47-.05,3.7,0,.21-.65-.45-1.26-1.08-1.54s-1.37-.48-1.69-1.09c-.64-1.25,1-3,.31-4.06C778.43,235,777.09,236.2,776,236.73Z" transform="translate(-635.575 -226.276)" fill="#316bff"/>
        <path id="Path_66" data-name="Path 66" d="M786.54,380.51a.9.9,0,0,1-.41.13c-.27,0-.45-.27-.56-.51-.59-1.29-.25-3-1.17-4.06a14,14,0,0,0-2.22,3.73l-3.49-1.08a5.21,5.21,0,0,0,.66,4,5.46,5.46,0,0,0-1.64,1.11,1.81,1.81,0,0,0-.43,1.85,8.87,8.87,0,0,0,2.46.25,16,16,0,0,0,.27,4.58.83.83,0,0,0,.3.59c.25.16.59,0,.85-.14a8.16,8.16,0,0,0,2.87-3l1.3,3.1a1.37,1.37,0,0,0,.58.78.94.94,0,0,0,1.09-.38,2.739,2.739,0,0,0,.38-1.17l.49-3a.65.65,0,0,1,.16-.41.7.7,0,0,1,.51-.15c1.23,0,2.47-.05,3.7,0,.21-.65-.44-1.26-1.07-1.54s-1.38-.48-1.7-1.09c-.64-1.25,1-3,.32-4.06C789,378.74,787.62,380,786.54,380.51Z" transform="translate(-635.575 -226.276)" fill="#316bff" opacity="0.2"/>
        <path id="Path_67" data-name="Path 67" d="M816.13,284.13a.8.8,0,0,1-.42.13c-.26,0-.44-.27-.55-.51-.6-1.29-.26-3-1.17-4.05a13.748,13.748,0,0,0-2.22,3.72l-3.49-1.08a5.17,5.17,0,0,0,.66,4,5.24,5.24,0,0,0-1.65,1.12,1.83,1.83,0,0,0-.43,1.84,8.942,8.942,0,0,0,2.47.25,16.449,16.449,0,0,0,.26,4.59.87.87,0,0,0,.3.58.84.84,0,0,0,.85-.14,8,8,0,0,0,2.88-3.05l1.29,3.1a1.37,1.37,0,0,0,.58.78.93.93,0,0,0,1.09-.38,2.621,2.621,0,0,0,.39-1.17l.48-2.95a.859.859,0,0,1,.16-.42.78.78,0,0,1,.52-.15h3.69c.22-.65-.44-1.26-1.07-1.54s-1.38-.48-1.69-1.09c-.64-1.25,1-3,.31-4.06C818.55,282.36,817.2,283.6,816.13,284.13Z" transform="translate(-635.575 -226.276)" fill="#316bff"/>
        <path id="Path_68" data-name="Path 68" d="M697.84,394.93a1.08,1.08,0,0,1-.57.17c-.37,0-.63-.37-.78-.7-.83-1.8-.35-4.13-1.63-5.65a19.336,19.336,0,0,0-3.09,5.19l-4.87-1.51a7.27,7.27,0,0,0,.92,5.57,7.74,7.74,0,0,0-2.29,1.56,2.57,2.57,0,0,0-.6,2.58,12.488,12.488,0,0,0,3.44.34,22.481,22.481,0,0,0,.37,6.39.9.9,0,0,0,1.6.62,11.19,11.19,0,0,0,4-4.25l1.81,4.32a1.92,1.92,0,0,0,.81,1.09,1.32,1.32,0,0,0,1.52-.53,3.819,3.819,0,0,0,.53-1.64l.68-4.11a1,1,0,0,1,.22-.58,1.06,1.06,0,0,1,.72-.21c1.72-.05,3.44-.06,5.15-.05.3-.91-.62-1.76-1.49-2.15s-1.92-.67-2.36-1.52c-.9-1.74,1.42-4.16.43-5.66C701.21,392.46,699.34,394.19,697.84,394.93Z" transform="translate(-635.575 -226.276)" fill="#316bff"/>
        <path id="Path_69" data-name="Path 69" d="M648.63,287a1.22,1.22,0,0,1-.58.17c-.36,0-.62-.37-.78-.7-.82-1.8-.35-4.14-1.62-5.65a19.471,19.471,0,0,0-3.1,5.18l-4.86-1.5a7.19,7.19,0,0,0,.92,5.57,7.269,7.269,0,0,0-2.29,1.56,2.53,2.53,0,0,0-.6,2.57,12.42,12.42,0,0,0,3.44.35,22.841,22.841,0,0,0,.36,6.39,1.17,1.17,0,0,0,.42.81c.36.23.82,0,1.19-.2a11.31,11.31,0,0,0,4-4.24l1.81,4.32a1.9,1.9,0,0,0,.8,1.08,1.3,1.3,0,0,0,1.52-.52,3.88,3.88,0,0,0,.54-1.64l.67-4.11a1.1,1.1,0,0,1,.23-.59,1,1,0,0,1,.72-.2c1.71-.05,3.43-.07,5.15-.05.29-.92-.62-1.76-1.5-2.15s-1.92-.67-2.36-1.52c-.89-1.74,1.42-4.16.44-5.66C652,284.53,650.13,286.27,648.63,287Z" transform="translate(-635.575 -226.276)" fill="#316bff"/>
        <path id="Path_70" data-name="Path 70" d="M798,353.84a.671.671,0,0,1-.3.1.59.59,0,0,1-.42-.38c-.44-1-.18-2.2-.86-3a10.232,10.232,0,0,0-1.64,2.75l-2.59-.8a3.84,3.84,0,0,0,.49,3,3.908,3.908,0,0,0-1.22.82,1.37,1.37,0,0,0-.31,1.37,6.189,6.189,0,0,0,1.82.18,11.758,11.758,0,0,0,.2,3.4.62.62,0,0,0,.22.43c.19.12.44,0,.63-.1a6,6,0,0,0,2.12-2.26l1,2.3a1,1,0,0,0,.43.57.7.7,0,0,0,.81-.28,2,2,0,0,0,.28-.87l.36-2.18a.559.559,0,0,1,.12-.31.52.52,0,0,1,.38-.11h2.74c.16-.48-.33-.93-.79-1.14s-1-.36-1.26-.81c-.47-.92.76-2.21.23-3S798.76,353.45,798,353.84Z" transform="translate(-635.575 -226.276)" fill="#316bff" opacity="0.2"/>
        <path id="Path_71" data-name="Path 71" d="M731.11,392.44a.589.589,0,0,1-.31.09c-.19,0-.33-.19-.41-.37-.44-1-.19-2.2-.86-3a10.26,10.26,0,0,0-1.65,2.75l-2.58-.8a3.8,3.8,0,0,0,.49,3,4.12,4.12,0,0,0-1.22.83,1.35,1.35,0,0,0-.32,1.37,6.619,6.619,0,0,0,1.83.18,12.141,12.141,0,0,0,.19,3.4.669.669,0,0,0,.22.43c.19.12.44,0,.63-.11a5.9,5.9,0,0,0,2.13-2.25l1,2.29a1.069,1.069,0,0,0,.43.58.7.7,0,0,0,.81-.28,2,2,0,0,0,.28-.87l.36-2.19a.51.51,0,0,1,.12-.3.52.52,0,0,1,.38-.11h2.74c.15-.49-.33-.94-.8-1.14a2.305,2.305,0,0,1-1.25-.81c-.48-.93.75-2.21.23-3S731.91,392.05,731.11,392.44Z" transform="translate(-635.575 -226.276)" fill="#316bff" opacity="0.2"/>
        <path id="Path_72" data-name="Path 72" d="M666.41,257.35a.69.69,0,0,1-.3.09c-.2,0-.34-.2-.42-.38-.44-.95-.19-2.19-.86-3a10.317,10.317,0,0,0-1.65,2.76l-2.58-.8a3.81,3.81,0,0,0,.49,3,3.94,3.94,0,0,0-1.22.83,1.34,1.34,0,0,0-.32,1.36,6.661,6.661,0,0,0,1.83.19,12,12,0,0,0,.19,3.39.63.63,0,0,0,.23.43.62.62,0,0,0,.63-.1,6,6,0,0,0,2.12-2.26l1,2.3a1,1,0,0,0,.43.57.69.69,0,0,0,.81-.27,2,2,0,0,0,.28-.88l.36-2.18a.56.56,0,0,1,.12-.31.52.52,0,0,1,.38-.11h2.74c.15-.48-.33-.93-.8-1.14s-1-.35-1.25-.81c-.48-.92.76-2.2.23-3S667.21,257,666.41,257.35Z" transform="translate(-635.575 -226.276)" fill="#316bff" opacity="0.5"/>
        <path id="Path_73" data-name="Path 73" d="M700.84,333.48a.75.75,0,0,1-.3.09c-.2,0-.33-.2-.41-.38-.44-.95-.19-2.19-.87-3a10.549,10.549,0,0,0-1.64,2.76l-2.59-.8a3.91,3.91,0,0,0,.49,3,3.78,3.78,0,0,0-1.21.83,1.33,1.33,0,0,0-.32,1.36,6.591,6.591,0,0,0,1.82.19,12,12,0,0,0,.2,3.39.48.48,0,0,0,.85.33A6.081,6.081,0,0,0,699,339l1,2.3a1,1,0,0,0,.43.57.68.68,0,0,0,.8-.28,2,2,0,0,0,.29-.87l.36-2.18a.41.41,0,0,1,.5-.42h2.73c.16-.48-.32-.93-.79-1.14s-1-.35-1.25-.81c-.48-.92.75-2.21.23-3S701.64,333.08,700.84,333.48Z" transform="translate(-635.575 -226.276)" fill="#316bff" opacity="0.5"/>
        <path id="Path_74" data-name="Path 74" d="M675.85,303.8a.53.53,0,0,1-.3.09c-.2,0-.33-.2-.41-.38-.44-.95-.19-2.19-.87-3a10.28,10.28,0,0,0-1.64,2.76l-2.59-.8a3.9,3.9,0,0,0,.49,3,3.94,3.94,0,0,0-1.22.83,1.36,1.36,0,0,0-.31,1.36,6.55,6.55,0,0,0,1.82.19,12,12,0,0,0,.2,3.39.6.6,0,0,0,.22.43.62.62,0,0,0,.63-.1,6.05,6.05,0,0,0,2.13-2.25l1,2.29a1,1,0,0,0,.42.57.68.68,0,0,0,.81-.27,2,2,0,0,0,.29-.87l.35-2.19a.56.56,0,0,1,.12-.31.64.64,0,0,1,.39-.11h2.73c.16-.48-.33-.93-.79-1.13a2.365,2.365,0,0,1-1.26-.82c-.47-.92.76-2.2.24-3S676.65,303.4,675.85,303.8Z" transform="translate(-635.575 -226.276)" fill="#316bff" opacity="0.5"/>
        <path id="Path_75" data-name="Path 75" d="M783.19,310.79a.749.749,0,0,1-.3.09c-.2,0-.33-.2-.41-.38-.44-.95-.19-2.19-.87-3a10.281,10.281,0,0,0-1.64,2.76l-2.59-.8a3.9,3.9,0,0,0,.49,3,3.941,3.941,0,0,0-1.22.83,1.35,1.35,0,0,0-.31,1.36,6.55,6.55,0,0,0,1.82.19,12,12,0,0,0,.2,3.39.479.479,0,0,0,.85.33,6.08,6.08,0,0,0,2.13-2.26l1,2.3a1,1,0,0,0,.43.57.69.69,0,0,0,.8-.28,2,2,0,0,0,.29-.87l.36-2.18a.55.55,0,0,1,.11-.31.53.53,0,0,1,.39-.11h2.73c.16-.48-.33-.93-.79-1.14s-1-.35-1.26-.81c-.47-.92.76-2.21.24-3S784,310.39,783.19,310.79Z" transform="translate(-635.575 -226.276)" fill="#316bff" opacity="0.5"/>
        <path id="Path_76" data-name="Path 76" d="M731.11,305a.69.69,0,0,1-.31.09c-.19,0-.33-.2-.41-.38-.44-1-.19-2.19-.86-3a10.317,10.317,0,0,0-1.65,2.76l-2.58-.8a3.81,3.81,0,0,0,.49,3,3.94,3.94,0,0,0-1.22.83,1.34,1.34,0,0,0-.32,1.36,6.619,6.619,0,0,0,1.83.19,12,12,0,0,0,.19,3.39.669.669,0,0,0,.22.43.62.62,0,0,0,.63-.1,6,6,0,0,0,2.13-2.26l1,2.3a1,1,0,0,0,.43.57.7.7,0,0,0,.81-.27,2,2,0,0,0,.28-.88l.36-2.18a.56.56,0,0,1,.12-.31.52.52,0,0,1,.38-.11h2.74c.15-.48-.33-.93-.8-1.14s-1-.35-1.25-.81c-.48-.92.75-2.2.23-3S731.91,304.55,731.11,305Z" transform="translate(-635.575 -226.276)" fill="#316bff" opacity="0.2"/>
        <path id="Path_77" data-name="Path 77" d="M714.76,312.06a.62.62,0,0,1-.3.09c-.2,0-.33-.2-.41-.38-.44-.95-.19-2.19-.87-3a10.28,10.28,0,0,0-1.64,2.76l-2.59-.8a3.9,3.9,0,0,0,.49,3,3.939,3.939,0,0,0-1.22.83,1.36,1.36,0,0,0-.31,1.36,6.549,6.549,0,0,0,1.82.19,12,12,0,0,0,.2,3.39.48.48,0,0,0,.85.33,6.08,6.08,0,0,0,2.13-2.26l1,2.3a1,1,0,0,0,.43.57.67.67,0,0,0,.8-.27,2,2,0,0,0,.29-.87l.36-2.19a.549.549,0,0,1,.11-.31.64.64,0,0,1,.39-.11h2.73c.16-.48-.33-.93-.79-1.14s-1-.35-1.26-.81c-.47-.92.76-2.2.24-3S715.56,311.66,714.76,312.06Z" transform="translate(-635.575 -226.276)" fill="#316bff" opacity="0.3"/>
        <path id="Path_78" data-name="Path 78" d="M699.53,269a.851.851,0,0,1-.31.09c-.19,0-.33-.2-.41-.38-.44-.95-.19-2.19-.86-3a10.319,10.319,0,0,0-1.65,2.76l-2.58-.8a3.82,3.82,0,0,0,.49,3,4.091,4.091,0,0,0-1.22.82,1.36,1.36,0,0,0-.32,1.37,6.291,6.291,0,0,0,1.83.18,12.12,12.12,0,0,0,.19,3.4.67.67,0,0,0,.22.43.62.62,0,0,0,.63-.1,6,6,0,0,0,2.13-2.26l1,2.3a1,1,0,0,0,.43.57.7.7,0,0,0,.81-.28,2,2,0,0,0,.28-.87l.36-2.18a.56.56,0,0,1,.12-.31.52.52,0,0,1,.38-.11h2.74c.15-.48-.33-.93-.8-1.14s-1-.36-1.25-.81c-.48-.92.75-2.21.23-3S700.33,268.63,699.53,269Z" transform="translate(-635.575 -226.276)" fill="#316bff" opacity="0.2"/>
        <path id="Path_79" data-name="Path 79" d="M729.54,325.18a.59.59,0,0,1-.31.09c-.19,0-.33-.2-.41-.38-.44-.95-.19-2.19-.86-3a10.317,10.317,0,0,0-1.65,2.76l-2.58-.8a3.81,3.81,0,0,0,.49,3,3.939,3.939,0,0,0-1.22.83,1.35,1.35,0,0,0-.32,1.37,7.07,7.07,0,0,0,1.83.18,12,12,0,0,0,.19,3.39.62.62,0,0,0,.22.43c.19.13.44,0,.64-.1a6,6,0,0,0,2.12-2.25l1,2.29a1,1,0,0,0,.43.57.68.68,0,0,0,.81-.27,2,2,0,0,0,.28-.87l.36-2.19a.56.56,0,0,1,.12-.31.63.63,0,0,1,.38-.11h2.74c.15-.49-.33-.94-.8-1.14a2.305,2.305,0,0,1-1.25-.81c-.48-.93.75-2.21.23-3S730.34,324.78,729.54,325.18Z" transform="translate(-635.575 -226.276)" fill="#316bff" opacity="0.3"/>
      </g>
      <g id="Group_2" data-name="Group 2" transform="translate(639.486 70.397)" opacity="0.6">
        <path id="Path_80" data-name="Path 80" d="M672.46,95.46a2,2,0,0,0-3.25,2.32c.37.56.78,1.11,1.17,1.63,4.69,6.33,7.12,14,9.22,21.63.51,1.87,1,3.86.42,5.71a35.59,35.59,0,0,0-1-14.9,92.287,92.287,0,0,0-5.27-14.06A12.227,12.227,0,0,0,672.46,95.46Z" transform="translate(-626.575 -78.58)" fill="#316bff" opacity="0.5"/>
        <path id="Path_81" data-name="Path 81" d="M642,108.79c-3.17-.1-3.57,4.7-.42,5,.83.06,1.66.08,2.46.1,9.7.27,18.86,3.79,27.67,7.56,2.17.93,4.44,2,5.7,4a41.55,41.55,0,0,0-14.76-10.46,108.229,108.229,0,0,0-17.42-5.62,14.319,14.319,0,0,0-3.23-.58Z" transform="translate(-626.575 -78.58)" fill="#316bff"/>
        <path id="Path_82" data-name="Path 82" d="M642.88,120.59c-2,.08-1.55,2.92.47,2.94h1.55c6.12-.25,12.38,1.44,18.46,3.29a9.61,9.61,0,0,1,4.15,2.09,33.5,33.5,0,0,0-10.79-5.54A83.721,83.721,0,0,0,645,120.75a11.3,11.3,0,0,0-2.12-.16Z" transform="translate(-626.575 -78.58)" fill="#316bff" opacity="0.2"/>
        <path id="Path_83" data-name="Path 83" d="M683.8,173.42c.57,1.92,3.21.78,2.73-1.17-.13-.52-.28-1-.43-1.5-1.75-5.86-1.67-12.35-1.38-18.7a9.43,9.43,0,0,1,1-4.53A33.328,33.328,0,0,0,683,159.34a82.836,82.836,0,0,0,.41,12,11.088,11.088,0,0,0,.39,2.08Z" transform="translate(-626.575 -78.58)" fill="#316bff" opacity="0.5"/>
        <path id="Path_84" data-name="Path 84" d="M646.53,92.8c-1.21-.21-1.3,1.54-.1,1.81.32.07.63.12.93.17,3.69.63,7.21,2.43,10.61,4.31a5.69,5.69,0,0,1,2.21,1.78,20.281,20.281,0,0,0-5.74-4.68,49.433,49.433,0,0,0-6.68-3A6,6,0,0,0,646.53,92.8Z" transform="translate(-626.575 -78.58)" fill="#316bff" opacity="0.2"/>
        <path id="Path_85" data-name="Path 85" d="M627.94,139.27c-3.05,1.57-.47,5.88,2.67,4.45.82-.37,1.62-.79,2.38-1.19,9.34-4.84,20.18-6.62,30.84-8,2.62-.33,5.41-.63,7.83.41a52.8,52.8,0,0,0-20.42-1.23A133.4,133.4,0,0,0,631.31,138a17.151,17.151,0,0,0-3.37,1.27Z" transform="translate(-626.575 -78.58)" fill="#316bff"/>
        <path id="Path_86" data-name="Path 86" d="M636.67,156.06c-2.2,2.05,1.23,4.47,3.53,2.5.6-.51,1.18-1.06,1.72-1.57,6.69-6.28,15.53-10.75,24.33-14.87,2.16-1,11-2,13.43-2-6.2.55-18.87,2.49-24.5,5.05a135.8,135.8,0,0,0-16,9,17,17,0,0,0-2.51,1.89Z" transform="translate(-626.575 -78.58)" fill="#316bff" opacity="0.5"/>
        <path id="Path_87" data-name="Path 87" d="M652.32,182.87c-.64,2.93,3.55,3,4.33,0,.2-.77.37-1.54.53-2.28,1.93-9,6.66-17.67,11.56-26.06,1.2-2.05,7.93-8,9.92-9.26-4.79,4-14.11,12.77-17.28,18.08a135.121,135.121,0,0,0-8,16.45,18.158,18.158,0,0,0-1.06,3.07Z" transform="translate(-626.575 -78.58)" fill="#316bff"/>
        <path id="Path_88" data-name="Path 88" d="M683.84,79.94c-1.5-3-5.77-.54-4.41,2.59.35.82.75,1.62,1.13,2.38,4.6,9.31,6.19,20.08,7.37,30.67.29,2.6.54,5.36-.52,7.75a53,53,0,0,0,1.52-20.22A134.085,134.085,0,0,0,685,83.29a17.833,17.833,0,0,0-1.16-3.35Z" transform="translate(-626.575 -78.58)" fill="#316bff"/>
        <path id="Path_89" data-name="Path 89" d="M660,85.13a.57.57,0,0,0,.25.08.46.46,0,0,0,.35-.32c.38-.81.16-1.86.74-2.55a8.78,8.78,0,0,1,1.39,2.34L665,84a3.29,3.29,0,0,1-.42,2.52,3.231,3.231,0,0,1,1,.7,1.14,1.14,0,0,1,.26,1.16,5.709,5.709,0,0,1-1.55.15,9.932,9.932,0,0,1-.16,2.88.54.54,0,0,1-.19.37.52.52,0,0,1-.53-.09,5,5,0,0,1-1.81-1.91l-.81,2a.82.82,0,0,1-.37.48.57.57,0,0,1-.68-.23,1.7,1.7,0,0,1-.24-.74l-.31-1.86a.42.42,0,0,0-.1-.26.45.45,0,0,0-.32-.09h-2.32c-.14-.41.27-.8.67-1s.86-.3,1.06-.69c.41-.78-.64-1.87-.19-2.55S659.35,84.8,660,85.13Z" transform="translate(-626.575 -78.58)" fill="#316bff"/>
        <path id="Path_90" data-name="Path 90" d="M702.36,95.46a2,2,0,0,1,3.26,2.32c-.38.56-.78,1.11-1.17,1.63-4.69,6.33-7.13,14-9.22,21.63-.52,1.87-1,3.86-.43,5.71a35.6,35.6,0,0,1,1-14.9,91.227,91.227,0,0,1,5.27-14.06,12.183,12.183,0,0,1,1.29-2.33Z" transform="translate(-626.575 -78.58)" fill="#316bff" opacity="0.5"/>
        <path id="Path_91" data-name="Path 91" d="M732.82,108.79c3.16-.1,3.57,4.7.41,5-.82.06-1.66.08-2.45.1-9.7.27-18.87,3.79-27.68,7.56-2.16.93-4.43,2-5.69,4a41.551,41.551,0,0,1,14.76-10.46,108.434,108.434,0,0,1,17.41-5.62A14.5,14.5,0,0,1,732.82,108.79Z" transform="translate(-626.575 -78.58)" fill="#316bff"/>
        <path id="Path_92" data-name="Path 92" d="M732,120.59c2,.08,1.54,2.92-.47,2.94h-1.55c-6.12-.25-12.38,1.44-18.46,3.29a9.55,9.55,0,0,0-4.15,2.09,33.4,33.4,0,0,1,10.79-5.54,83.721,83.721,0,0,1,11.74-2.58,11.3,11.3,0,0,1,2.1-.2Z" transform="translate(-626.575 -78.58)" fill="#316bff" opacity="0.5"/>
        <path id="Path_93" data-name="Path 93" d="M728.3,92.8c1.21-.21,1.3,1.54.1,1.81-.32.07-.63.12-.94.17-3.68.63-7.21,2.43-10.6,4.31a5.69,5.69,0,0,0-2.21,1.78,20.24,20.24,0,0,1,5.73-4.68,50.118,50.118,0,0,1,6.69-3,5.788,5.788,0,0,1,1.23-.39Z" transform="translate(-626.575 -78.58)" fill="#316bff" opacity="0.2"/>
        <path id="Path_94" data-name="Path 94" d="M697,177.06c-.27,1.19-1.92.6-1.7-.61a4.165,4.165,0,0,1,.2-.93c.84-3.64.53-7.59.11-11.45a5.779,5.779,0,0,0-.79-2.72,20.229,20.229,0,0,1,2.1,7.1,51.408,51.408,0,0,1,.23,7.33A6.129,6.129,0,0,1,697,177.06Z" transform="translate(-626.575 -78.58)" fill="#316bff" opacity="0.2"/>
        <path id="Path_95" data-name="Path 95" d="M727.53,169.14c.94,1.59-1.37,1.48-2.38-.11-.27-.42-.51-.84-.75-1.24-2.86-4.87-7.22-9.69-11.61-14.34a16.072,16.072,0,0,0-3.59-3.11,56.937,56.937,0,0,1,9.43,8.07c2.82,2.94,5.3,6,7.74,9.08A15.932,15.932,0,0,1,727.53,169.14Z" transform="translate(-626.575 -78.58)" fill="#316bff" opacity="0.5"/>
        <path id="Path_96" data-name="Path 96" d="M643.89,169.14c-.94,1.59,1.37,1.48,2.39-.11.26-.42.51-.84.74-1.24,2.86-4.87,7.22-9.69,11.61-14.34a16.121,16.121,0,0,1,3.6-3.11,57,57,0,0,0-9.44,8.07c-2.81,2.94-5.3,6-7.74,9.08a15.935,15.935,0,0,0-1.16,1.65Z" transform="translate(-626.575 -78.58)" fill="#316bff" opacity="0.2"/>
        <path id="Path_97" data-name="Path 97" d="M674.48,177.06c.27,1.19,1.92.6,1.71-.61-.06-.32-.13-.63-.2-.93-.84-3.64-.54-7.59-.11-11.45a5.66,5.66,0,0,1,.78-2.72,20.232,20.232,0,0,0-2.1,7.1,50.01,50.01,0,0,0-.22,7.33,6.87,6.87,0,0,0,.14,1.28Z" transform="translate(-626.575 -78.58)" fill="#316bff" opacity="0.2"/>
        <path id="Path_98" data-name="Path 98" d="M718.67,104.76c1.2-.21,1.29,1.55.09,1.81-.31.07-.63.12-.93.18-3.69.62-7.21,2.43-10.61,4.31a5.83,5.83,0,0,0-2.21,1.77,20.25,20.25,0,0,1,5.74-4.67,49.488,49.488,0,0,1,6.68-3,6.543,6.543,0,0,1,1.24-.4Z" transform="translate(-626.575 -78.58)" fill="#316bff" opacity="0.2"/>
        <path id="Path_99" data-name="Path 99" d="M707.42,81.27c1-.64,1.78,1,.77,1.64l-.8.51c-3.18,2-5.78,5-8.23,8a5.69,5.69,0,0,0-1.38,2.47,20.15,20.15,0,0,1,3.57-6.48,49.879,49.879,0,0,1,5.06-5.31,6.456,6.456,0,0,1,1.01-.83Z" transform="translate(-626.575 -78.58)" fill="#316bff" opacity="0.2"/>
        <path id="Path_100" data-name="Path 100" d="M746.89,139.27c3.05,1.57.47,5.88-2.67,4.45-.82-.37-1.62-.79-2.39-1.19-9.33-4.84-20.17-6.62-30.83-8-2.62-.33-5.41-.63-7.83.41a52.76,52.76,0,0,1,20.41-1.23A133.254,133.254,0,0,1,743.52,138a17.64,17.64,0,0,1,3.37,1.27Z" transform="translate(-626.575 -78.58)" fill="#316bff"/>
        <path id="Path_101" data-name="Path 101" d="M738.16,156.06c2.2,2.05-1.23,4.47-3.53,2.5-.6-.51-1.18-1.06-1.73-1.57-6.69-6.28-15.52-10.75-24.33-14.87-2.15-1-11.05-2-13.42-2,6.2.55,18.86,2.49,24.49,5.05a135.119,135.119,0,0,1,16,9,17,17,0,0,1,2.52,1.89Z" transform="translate(-626.575 -78.58)" fill="#316bff" opacity="0.5"/>
        <path id="Path_102" data-name="Path 102" d="M712.3,186.22c.27,3-3.9,2.5-4.3-.5-.1-.78-.17-1.57-.24-2.32-.79-9.14-4.4-18.37-8.21-27.3-.93-2.2-6.87-8.9-8.67-10.44,4.25,4.55,12.39,14.44,14.88,20.1a136.383,136.383,0,0,1,5.92,17.34A16.584,16.584,0,0,1,712.3,186.22Z" transform="translate(-626.575 -78.58)" fill="#316bff"/>
        <path id="Path_103" data-name="Path 103" d="M714.8,85.13a.61.61,0,0,1-.26.08c-.16,0-.28-.17-.35-.32-.37-.81-.16-1.86-.73-2.55a8.809,8.809,0,0,0-1.4,2.34L709.87,84a3.24,3.24,0,0,0,.42,2.52,3.231,3.231,0,0,0-1,.7,1.14,1.14,0,0,0-.27,1.16,5.79,5.79,0,0,0,1.55.15,10.3,10.3,0,0,0,.17,2.88.54.54,0,0,0,.19.37.52.52,0,0,0,.53-.09,5,5,0,0,0,1.81-1.91l.81,2a.85.85,0,0,0,.36.48.58.58,0,0,0,.69-.23,1.7,1.7,0,0,0,.24-.74l.31-1.86a.42.42,0,0,1,.1-.26.45.45,0,0,1,.32-.09h2.32c.14-.41-.28-.8-.67-1s-.87-.3-1.07-.69c-.4-.78.65-1.87.2-2.55S715.48,84.8,714.8,85.13Z" transform="translate(-626.575 -78.58)" fill="#316bff"/>
        <path id="Path_104" data-name="Path 104" d="M721.42,175.46a.61.61,0,0,1-.26.08c-.17,0-.28-.17-.35-.32-.37-.81-.16-1.86-.73-2.55a8.708,8.708,0,0,0-1.4,2.34l-2.19-.68a3.28,3.28,0,0,0,.41,2.52,3.48,3.48,0,0,0-1,.7,1.14,1.14,0,0,0-.27,1.16,5.79,5.79,0,0,0,1.55.15,10.368,10.368,0,0,0,.16,2.89.53.53,0,0,0,.19.36c.16.1.37,0,.54-.09a5.08,5.08,0,0,0,1.8-1.91l.82,1.95a.86.86,0,0,0,.36.49.58.58,0,0,0,.68-.24,1.712,1.712,0,0,0,.25-.74l.3-1.85a.58.58,0,0,1,.1-.27.46.46,0,0,1,.33-.09h2.32c.13-.41-.28-.8-.67-1s-.87-.3-1.07-.69c-.4-.78.64-1.87.2-2.55S722.1,175.13,721.42,175.46Z" transform="translate(-626.575 -78.58)" fill="#316bff" opacity="0.2"/>
        <path id="Path_105" data-name="Path 105" d="M740,114.91a.651.651,0,0,1-.26.08c-.17,0-.28-.17-.35-.32-.38-.81-.16-1.86-.74-2.55a8.939,8.939,0,0,0-1.39,2.34l-2.2-.68a3.29,3.29,0,0,0,.42,2.52,3.19,3.19,0,0,0-1,.7,1.14,1.14,0,0,0-.27,1.16,5.75,5.75,0,0,0,1.55.15,10.368,10.368,0,0,0,.16,2.89.53.53,0,0,0,.19.36.52.52,0,0,0,.53-.09,5,5,0,0,0,1.81-1.91l.82,2a.86.86,0,0,0,.36.49.58.58,0,0,0,.68-.24,1.58,1.58,0,0,0,.24-.74l.31-1.85a.43.43,0,0,1,.1-.27.45.45,0,0,1,.32-.09h2.33c.13-.41-.28-.8-.68-1s-.86-.3-1.06-.69c-.41-.78.64-1.87.2-2.55S740.68,114.58,740,114.91Z" transform="translate(-626.575 -78.58)" fill="#316bff"/>
        <path id="Path_106" data-name="Path 106" d="M665.69,184.52a.66.66,0,0,1-.36.11c-.23,0-.39-.23-.49-.44-.52-1.14-.22-2.6-1-3.55a12.08,12.08,0,0,0-1.94,3.26l-3.06-1a4.54,4.54,0,0,0,.58,3.5,4.77,4.77,0,0,0-1.44,1,1.61,1.61,0,0,0-.38,1.62,7.89,7.89,0,0,0,2.16.21,14.652,14.652,0,0,0,.23,4,.76.76,0,0,0,.27.51c.22.14.51,0,.74-.12a7.18,7.18,0,0,0,2.5-2.62l1.13,2.71a1.19,1.19,0,0,0,.51.68.8.8,0,0,0,1-.33,2.291,2.291,0,0,0,.34-1l.42-2.58a.709.709,0,0,1,.15-.37.69.69,0,0,1,.45-.13h3.23c.19-.57-.39-1.1-.94-1.35s-1.2-.42-1.48-.95c-.56-1.1.89-2.62.27-3.56C667.81,183,666.64,184.05,665.69,184.52Z" transform="translate(-626.575 -78.58)" fill="#316bff"/>
        <path id="Path_107" data-name="Path 107" d="M634.77,116.72a.76.76,0,0,1-.36.11c-.23,0-.39-.24-.49-.45-.52-1.13-.22-2.59-1-3.55a12.239,12.239,0,0,0-1.94,3.26l-3.06-.94a4.54,4.54,0,0,0,.58,3.5,4.6,4.6,0,0,0-1.44,1,1.57,1.57,0,0,0-.37,1.61,7.419,7.419,0,0,0,2.15.22,14.56,14.56,0,0,0,.23,4,.76.76,0,0,0,.27.52c.22.14.51,0,.74-.13a7.229,7.229,0,0,0,2.52-2.66l1.13,2.71a1.23,1.23,0,0,0,.51.68.8.8,0,0,0,.95-.33,2.29,2.29,0,0,0,.34-1l.42-2.58a.709.709,0,0,1,.15-.37.69.69,0,0,1,.45-.13h3.23c.19-.57-.38-1.11-.94-1.35s-1.2-.42-1.48-1c-.56-1.09.89-2.61.28-3.55C636.89,115.16,635.72,116.25,634.77,116.72Z" transform="translate(-626.575 -78.58)" fill="#316bff"/>
        <path id="Path_108" data-name="Path 108" d="M728.59,158.71a.32.32,0,0,1-.19,0c-.12,0-.21-.12-.26-.23-.27-.6-.11-1.38-.54-1.89a6.6,6.6,0,0,0-1,1.73l-1.63-.5a2.43,2.43,0,0,0,.31,1.86,2.391,2.391,0,0,0-.76.52.84.84,0,0,0-.2.86,4.38,4.38,0,0,0,1.14.12,7.258,7.258,0,0,0,.13,2.13.4.4,0,0,0,.14.27c.11.08.27,0,.39-.07a3.7,3.7,0,0,0,1.34-1.41l.6,1.44a.62.62,0,0,0,.27.36.45.45,0,0,0,.51-.17,1.489,1.489,0,0,0,.18-.55l.22-1.37a.359.359,0,0,1,.08-.2.38.38,0,0,1,.24-.07h1.71c.1-.31-.2-.59-.49-.72s-.65-.22-.79-.51c-.3-.58.47-1.39.14-1.89S729.1,158.46,728.59,158.71Z" transform="translate(-626.575 -78.58)" fill="#316bff" opacity="0.2"/>
        <path id="Path_109" data-name="Path 109" d="M686.59,183a.32.32,0,0,1-.19,0c-.12,0-.21-.12-.26-.23-.27-.6-.11-1.38-.54-1.89a6.6,6.6,0,0,0-1,1.73l-1.63-.5a2.43,2.43,0,0,0,.31,1.86,2.391,2.391,0,0,0-.76.52.84.84,0,0,0-.2.86,4,4,0,0,0,1.14.11,7.309,7.309,0,0,0,.13,2.14.43.43,0,0,0,.13.27.4.4,0,0,0,.4-.07,3.7,3.7,0,0,0,1.34-1.41l.6,1.44a.66.66,0,0,0,.27.36.46.46,0,0,0,.51-.17,1.31,1.31,0,0,0,.17-.55l.23-1.37a.36.36,0,0,1,.08-.2.33.33,0,0,1,.24-.07h1.71c.1-.31-.2-.59-.49-.72s-.65-.23-.79-.51c-.3-.58.47-1.39.14-1.89S687.09,182.71,686.59,183Z" transform="translate(-626.575 -78.58)" fill="#316bff" opacity="0.2"/>
        <path id="Path_110" data-name="Path 110" d="M646,98.08a.471.471,0,0,1-.19.06.33.33,0,0,1-.26-.24c-.28-.6-.12-1.38-.55-1.88a6.452,6.452,0,0,0-1,1.73l-1.62-.5a2.4,2.4,0,0,0,.3,1.86,2.341,2.341,0,0,0-.76.52.84.84,0,0,0-.2.86,4,4,0,0,0,1.15.11,7.606,7.606,0,0,0,.12,2.13.4.4,0,0,0,.14.28c.12.07.27,0,.39-.07a3.73,3.73,0,0,0,1.34-1.42l.6,1.44a.65.65,0,0,0,.27.37.44.44,0,0,0,.51-.18,1.28,1.28,0,0,0,.18-.55l.22-1.37a.27.27,0,0,1,.32-.26h1.72c.09-.3-.21-.59-.5-.71s-.64-.23-.79-.51c-.3-.58.47-1.39.15-1.89S646.45,97.83,646,98.08Z" transform="translate(-626.575 -78.58)" fill="#316bff" opacity="0.5"/>
        <path id="Path_111" data-name="Path 111" d="M667.58,145.91a.42.42,0,0,1-.19.06c-.12,0-.21-.13-.26-.24-.28-.6-.12-1.38-.54-1.88a6.23,6.23,0,0,0-1,1.73l-1.62-.5a2.4,2.4,0,0,0,.31,1.86,2.381,2.381,0,0,0-.77.52.85.85,0,0,0-.2.85,4.06,4.06,0,0,0,1.15.12,7.61,7.61,0,0,0,.12,2.13.38.38,0,0,0,.14.27c.12.08.28,0,.4-.06a3.78,3.78,0,0,0,1.33-1.42l.61,1.44a.59.59,0,0,0,.27.36.41.41,0,0,0,.5-.17,1.189,1.189,0,0,0,.18-.55l.23-1.37a.32.32,0,0,1,.07-.19.34.34,0,0,1,.24-.07h1.72c.1-.3-.21-.59-.5-.72s-.64-.22-.79-.51c-.29-.58.48-1.38.15-1.88S668.08,145.66,667.58,145.91Z" transform="translate(-626.575 -78.58)" fill="#316bff" opacity="0.5"/>
        <path id="Path_112" data-name="Path 112" d="M651.88,127.27a.32.32,0,0,1-.19,0c-.12,0-.21-.12-.26-.23-.28-.6-.12-1.38-.54-1.89a6.378,6.378,0,0,0-1,1.73l-1.62-.5a2.39,2.39,0,0,0,.31,1.86,2.55,2.55,0,0,0-.77.52.86.86,0,0,0-.2.86,4,4,0,0,0,1.15.11,7.656,7.656,0,0,0,.12,2.14.3.3,0,0,0,.54.2,3.75,3.75,0,0,0,1.33-1.41l.61,1.44a.66.66,0,0,0,.27.36.43.43,0,0,0,.5-.18,1.239,1.239,0,0,0,.18-.54l.23-1.38a.25.25,0,0,1,.31-.26h1.72c.1-.3-.21-.58-.5-.71s-.64-.23-.79-.51c-.3-.58.48-1.39.15-1.89S652.38,127,651.88,127.27Z" transform="translate(-626.575 -78.58)" fill="#316bff" opacity="0.5"/>
        <path id="Path_113" data-name="Path 113" d="M719.32,131.66a.34.34,0,0,1-.19.05c-.13,0-.21-.12-.26-.23-.28-.6-.12-1.38-.55-1.89a6.6,6.6,0,0,0-1,1.73l-1.62-.5a2.38,2.38,0,0,0,.3,1.86,2.51,2.51,0,0,0-.76.52.84.84,0,0,0-.2.86,4,4,0,0,0,1.15.11,7.659,7.659,0,0,0,.12,2.14.4.4,0,0,0,.14.27.38.38,0,0,0,.39-.07,3.78,3.78,0,0,0,1.34-1.41l.6,1.44a.66.66,0,0,0,.27.36.44.44,0,0,0,.51-.18,1.241,1.241,0,0,0,.18-.54l.22-1.38a.36.36,0,0,1,.08-.19.33.33,0,0,1,.24-.07H722c.09-.3-.21-.58-.5-.71s-.64-.23-.79-.51c-.3-.58.47-1.39.15-1.89S719.82,131.41,719.32,131.66Z" transform="translate(-626.575 -78.58)" fill="#316bff" opacity="0.5"/>
        <path id="Path_114" data-name="Path 114" d="M686.59,128a.32.32,0,0,1-.19,0c-.12,0-.21-.12-.26-.23-.27-.6-.11-1.38-.54-1.89a6.6,6.6,0,0,0-1,1.73l-1.63-.5a2.43,2.43,0,0,0,.31,1.86,2.391,2.391,0,0,0-.76.52.84.84,0,0,0-.2.86,4.381,4.381,0,0,0,1.14.12,7.258,7.258,0,0,0,.13,2.13.43.43,0,0,0,.13.27c.12.08.28,0,.4-.07a3.7,3.7,0,0,0,1.34-1.41l.6,1.44a.62.62,0,0,0,.27.36.46.46,0,0,0,.51-.17,1.31,1.31,0,0,0,.17-.55l.23-1.37a.36.36,0,0,1,.08-.2.38.38,0,0,1,.24-.07h1.71c.1-.31-.2-.59-.49-.72s-.65-.22-.79-.51c-.3-.58.47-1.39.14-1.89S687.09,127.74,686.59,128Z" transform="translate(-626.575 -78.58)" fill="#316bff" opacity="0.2"/>
        <path id="Path_115" data-name="Path 115" d="M676.33,132.45a.39.39,0,0,1-.2.06c-.12,0-.2-.12-.26-.23-.27-.6-.11-1.38-.54-1.89a6.6,6.6,0,0,0-1,1.73l-1.63-.5a2.43,2.43,0,0,0,.31,1.86,2.509,2.509,0,0,0-.76.52.84.84,0,0,0-.2.86,4,4,0,0,0,1.14.11,7.691,7.691,0,0,0,.13,2.14.4.4,0,0,0,.14.27.38.38,0,0,0,.39-.07,3.78,3.78,0,0,0,1.34-1.41l.6,1.44a.66.66,0,0,0,.27.36.44.44,0,0,0,.51-.18,1.38,1.38,0,0,0,.18-.54l.22-1.38a.27.27,0,0,1,.32-.26h1.72c.09-.3-.21-.58-.5-.71s-.64-.23-.79-.51c-.3-.58.47-1.39.14-1.89S676.83,132.21,676.33,132.45Z" transform="translate(-626.575 -78.58)" fill="#316bff" opacity="0.3"/>
        <path id="Path_116" data-name="Path 116" d="M666.75,105.42a.42.42,0,0,1-.19.06c-.12,0-.21-.13-.26-.24-.27-.6-.11-1.38-.54-1.88a6.29,6.29,0,0,0-1,1.73l-1.63-.51a2.43,2.43,0,0,0,.31,1.86,2.56,2.56,0,0,0-.76.52.85.85,0,0,0-.2.86,4.38,4.38,0,0,0,1.14.12,7.262,7.262,0,0,0,.13,2.13.41.41,0,0,0,.13.27c.12.08.28,0,.4-.06a3.8,3.8,0,0,0,1.34-1.42l.6,1.44a.62.62,0,0,0,.27.36.43.43,0,0,0,.51-.17,1.31,1.31,0,0,0,.17-.55l.23-1.37a.36.36,0,0,1,.08-.2.32.32,0,0,1,.24-.06h1.71c.1-.31-.2-.59-.49-.72s-.65-.22-.79-.51c-.3-.58.47-1.38.14-1.88S667.25,105.17,666.75,105.42Z" transform="translate(-626.575 -78.58)" fill="#316bff" opacity="0.2"/>
        <path id="Path_117" data-name="Path 117" d="M685.61,140.7a.34.34,0,0,1-.19.05c-.13,0-.21-.12-.26-.23-.28-.6-.12-1.38-.55-1.89a6.5,6.5,0,0,0-1,1.74l-1.62-.51a2.42,2.42,0,0,0,.3,1.86,2.631,2.631,0,0,0-.76.52.84.84,0,0,0-.2.86,4.45,4.45,0,0,0,1.15.12,7.611,7.611,0,0,0,.12,2.13.4.4,0,0,0,.14.27c.12.08.27,0,.39-.06a3.8,3.8,0,0,0,1.34-1.42l.6,1.44a.62.62,0,0,0,.27.36.45.45,0,0,0,.51-.17,1.32,1.32,0,0,0,.18-.55l.22-1.37a.44.44,0,0,1,.08-.2.38.38,0,0,1,.24-.07h1.72c.1-.31-.21-.59-.5-.72s-.64-.22-.79-.51c-.3-.58.48-1.39.15-1.89S686.11,140.45,685.61,140.7Z" transform="translate(-626.575 -78.58)" fill="#316bff" opacity="0.3"/>
      </g>
      <path id="Path_118" data-name="Path 118" d="M454.64,121.29c-3.65-5-11.19.41-7.78,5.55.89,1.34,1.86,2.65,2.78,3.89,11.24,15.16,17.06,33.58,22.07,51.78,1.23,4.46,2.42,9.23,1,13.65,2-11.83.7-24-2.33-35.64s-7.74-22.7-12.61-33.66a29.888,29.888,0,0,0-3.13-5.57Z" transform="translate(-95.007 -78.56)" fill="#316bff" opacity="0.5"/>
      <path id="Path_119" data-name="Path 119" d="M381.77,153.18c-7.58-.23-8.54,11.26-1,11.86,2,.16,4,.21,5.88.26,23.2.63,45.14,9,66.22,18.09,5.17,2.22,10.6,4.72,13.63,9.47-9.5-11-22-19.1-35.33-25S403.68,158,389.5,154.37a36.439,36.439,0,0,0-7.73-1.19Z" transform="translate(-87.065 -78.56)" fill="#316bff"/>
      <path id="Path_120" data-name="Path 120" d="M383.85,181.43c-4.78.18-3.7,7,1.12,7,1.26,0,2.51,0,3.71-.1,14.64-.59,29.63,3.45,44.17,7.89,3.57,1.09,7.33,2.33,9.93,5-7.57-6.09-16.6-10.32-25.81-13.25s-18.67-4.64-28.09-6.18a25.6,25.6,0,0,0-5.03-.36Z" transform="translate(-86.345 -78.56)" fill="#316bff" opacity="0.2"/>
      <path id="Path_121" data-name="Path 121" d="M481.77,307.85c1.36,4.59,7.68,1.86,6.53-2.82-.31-1.22-.67-2.43-1-3.58-4.21-14-4-29.55-3.32-44.74.17-3.72.44-7.68,2.38-10.86-4,8.85-5.87,18.64-6.43,28.29s.14,19.24,1,28.75a26.322,26.322,0,0,0,.84,4.96Z" transform="translate(-99.205 -67.446)" fill="#316bff" opacity="0.5"/>
      <path id="Path_122" data-name="Path 122" d="M392.57,114.91c-2.88-.5-3.1,3.7-.22,4.34.75.16,1.51.29,2.23.41,8.82,1.51,17.25,5.82,25.37,10.32,2,1.11,4.09,2.33,5.3,4.25A48.51,48.51,0,0,0,411.52,123a119.47,119.47,0,0,0-16-7.26A16,16,0,0,0,392.57,114.91Z" transform="translate(-86.46 -78.56)" fill="#316bff" opacity="0.2"/>
      <path id="Path_123" data-name="Path 123" d="M348.1,226.11c-7.31,3.76-1.13,14.09,6.38,10.66,2-.9,3.88-1.9,5.71-2.85,22.33-11.58,48.27-15.85,73.79-19.14,6.26-.8,12.94-1.51,18.73,1-15.79-4.45-32.6-4.82-48.85-2.93s-32.06,6-47.71,10.26a43,43,0,0,0-8.05,3Z" transform="translate(-82.721 -70.17)" fill="#316bff"/>
      <path id="Path_124" data-name="Path 124" d="M369,266.3c-5.25,4.9,2.95,10.69,8.46,6,1.44-1.23,2.81-2.53,4.12-3.76,16-15,37.16-25.72,58.22-35.57,5.17-2.42,26.44-4.89,32.12-4.76-14.83,1.33-45.14,6-58.61,12.09s-25.96,13.7-38.25,21.43A41.291,41.291,0,0,0,369,266.3Z" transform="translate(-86.42 -68.873)" fill="#316bff" opacity="0.5"/>
      <path id="Path_125" data-name="Path 125" d="M406.44,330.46c-1.53,7,8.5,7.11,10.36.11.49-1.84.88-3.68,1.26-5.44,4.62-21.46,15.95-42.29,27.67-62.36,2.88-4.93,19-19.06,23.73-22.18-11.45,9.53-33.75,30.57-41.35,43.27s-13.54,26-19.26,39.37a41.452,41.452,0,0,0-2.41,7.23Z" transform="translate(-90.633 -67.305)" fill="#316bff"/>
      <path id="Path_126" data-name="Path 126" d="M481.86,84.16c-3.58-7.3-13.8-1.3-10.56,6.18.85,2,1.81,3.88,2.71,5.7,11,22.28,14.81,48.05,17.64,73.39.69,6.21,1.29,12.84-1.24,18.55,4.62-15.59,5.23-32.25,3.63-48.38s-5.36-31.85-9.34-47.42a41.38,41.38,0,0,0-2.84-8.02Z" transform="translate(-98.74 -78.56)" fill="#316bff"/>
      <path id="Path_127" data-name="Path 127" d="M424.88,96.57a1.14,1.14,0,0,0,.61.18c.4,0,.68-.4.84-.76.9-1.94.38-4.46,1.76-6.09a21,21,0,0,1,3.34,5.59l5.25-1.62a7.8,7.8,0,0,1-1,6,8.17,8.17,0,0,1,2.48,1.68,2.75,2.75,0,0,1,.64,2.78,13.22,13.22,0,0,1-3.71.37,24.59,24.59,0,0,1-.39,6.9,1.3,1.3,0,0,1-.45.87c-.39.25-.89,0-1.28-.21a12.1,12.1,0,0,1-4.32-4.58l-1.95,4.66a2.09,2.09,0,0,1-.87,1.17,1.41,1.41,0,0,1-1.64-.56,4,4,0,0,1-.58-1.77l-.73-4.44a1.06,1.06,0,0,0-.24-.63,1.16,1.16,0,0,0-.78-.22q-2.78-.08-5.55-.06c-.32-1,.66-1.9,1.61-2.31s2.07-.73,2.55-1.65c1-1.87-1.54-4.48-.47-6.1C421.24,93.9,423.26,95.77,424.88,96.57Z" transform="translate(-89.962 -78.56)" fill="#316bff"/>
      <path id="Path_128" data-name="Path 128" d="M526.19,121.29c3.65-5,11.19.41,7.78,5.55-.89,1.34-1.87,2.65-2.79,3.89-11.23,15.16-17,33.58-22.07,51.78-1.23,4.46-2.42,9.23-1,13.65-2-11.83-.7-24,2.33-35.64s7.74-22.7,12.61-33.66a29.883,29.883,0,0,1,3.14-5.57Z" transform="translate(-104.81 -78.56)" fill="#316bff" opacity="0.5"/>
      <path id="Path_129" data-name="Path 129" d="M599.06,153.18c7.58-.23,8.54,11.26,1,11.86-2,.16-4,.21-5.88.26-23.2.63-45.14,9-66.22,18.09-5.18,2.22-10.61,4.72-13.63,9.47,9.5-11,22-19.1,35.33-25s27.48-9.82,41.66-13.46a36.629,36.629,0,0,1,7.74-1.22Z" transform="translate(-110.643 -78.56)" fill="#316bff"/>
      <path id="Path_130" data-name="Path 130" d="M597,181.43c4.79.18,3.71,7-1.11,7-1.26,0-2.52,0-3.72-.1-14.63-.59-29.62,3.45-44.16,7.89-3.57,1.09-7.34,2.33-9.93,5,7.57-6.09,16.59-10.32,25.81-13.25s18.67-4.64,28.09-6.18A25.56,25.56,0,0,1,597,181.43Z" transform="translate(-112.363 -78.56)" fill="#316bff" opacity="0.5"/>
      <path id="Path_131" data-name="Path 131" d="M588.25,114.91c2.88-.5,3.1,3.7.23,4.34-.75.16-1.51.29-2.23.41-8.82,1.51-17.26,5.82-25.38,10.32-2,1.11-4.08,2.33-5.29,4.25A48.51,48.51,0,0,1,569.31,123a119.469,119.469,0,0,1,16-7.26,15.871,15.871,0,0,1,2.94-.83Z" transform="translate(-113.127 -78.56)" fill="#316bff" opacity="0.2"/>
      <path id="Path_132" data-name="Path 132" d="M513.27,316.55c-.65,2.85-4.61,1.43-4.09-1.46.14-.76.32-1.51.48-2.22,2-8.72,1.28-18.17.26-27.39-.25-2.27-.57-4.67-1.88-6.53a48.58,48.58,0,0,1,5,17,121.238,121.238,0,0,1,.53,17.55A15.76,15.76,0,0,1,513.27,316.55Z" transform="translate(-103.463 -65.706)" fill="#316bff" opacity="0.2"/>
      <path id="Path_133" data-name="Path 133" d="M586.41,297.59c2.25,3.81-3.28,3.56-5.7-.26-.64-1-1.22-2-1.79-3-6.85-11.65-17.27-23.18-27.77-34.32-2.58-2.73-5.37-5.61-8.62-7.43a135.589,135.589,0,0,1,22.58,19.3c6.74,7,12.69,14.39,18.52,21.72a35.9,35.9,0,0,1,2.78,3.99Z" transform="translate(-111.736 -67.265)" fill="#316bff" opacity="0.5"/>
      <path id="Path_134" data-name="Path 134" d="M386.27,297.59c-2.25,3.81,3.28,3.56,5.7-.26.64-1,1.23-2,1.79-3,6.85-11.65,17.28-23.18,27.77-34.32,2.58-2.73,5.37-5.61,8.62-7.43a135.586,135.586,0,0,0-22.58,19.3c-6.74,7-12.69,14.39-18.52,21.72a35.9,35.9,0,0,0-2.78,3.99Z" transform="translate(-86.221 -67.265)" fill="#316bff" opacity="0.2"/>
      <path id="Path_135" data-name="Path 135" d="M459.46,316.55c.65,2.85,4.61,1.43,4.09-1.46-.14-.76-.32-1.51-.48-2.22-2-8.72-1.28-18.17-.26-27.39.25-2.27.57-4.67,1.87-6.53a48.769,48.769,0,0,0-5,17,119.815,119.815,0,0,0-.53,17.55,15.762,15.762,0,0,0,.31,3.05Z" transform="translate(-95.76 -65.706)" fill="#316bff" opacity="0.2"/>
      <path id="Path_136" data-name="Path 136" d="M565.2,143.54c2.88-.5,3.1,3.7.22,4.34-.75.16-1.51.29-2.23.41-8.82,1.51-17.25,5.82-25.37,10.32-2,1.11-4.09,2.33-5.3,4.25a48.511,48.511,0,0,1,13.73-11.19,120.75,120.75,0,0,1,16-7.26A16,16,0,0,1,565.2,143.54Z" transform="translate(-109.407 -78.56)" fill="#316bff" opacity="0.2"/>
      <path id="Path_137" data-name="Path 137" d="M538.3,87.33c2.48-1.54,4.25,2.27,1.83,3.93-.64.44-1.29.84-1.92,1.22-7.61,4.7-13.83,11.85-19.68,19.06-1.43,1.77-2.92,3.68-3.32,5.92A48.57,48.57,0,0,1,523.76,102a121.609,121.609,0,0,1,12.12-12.72,16,16,0,0,1,2.42-1.95Z" transform="translate(-105.99 -78.56)" fill="#316bff" opacity="0.2"/>
      <path id="Path_138" data-name="Path 138" d="M632.73,226.11c7.31,3.76,1.13,14.09-6.38,10.66-2-.9-3.88-1.9-5.71-2.85-22.33-11.58-48.28-15.85-73.79-19.14-6.27-.8-12.94-1.51-18.73,1,15.79-4.45,32.59-4.82,48.85-2.93s32,6,47.71,10.26a43,43,0,0,1,8.05,3Z" transform="translate(-114.377 -70.17)" fill="#316bff"/>
      <path id="Path_139" data-name="Path 139" d="M611.85,266.3c5.25,4.9-3,10.69-8.46,6-1.44-1.23-2.81-2.53-4.12-3.76-16-15-37.16-25.72-58.22-35.57-5.17-2.42-26.45-4.89-32.13-4.76,14.84,1.33,45.15,6,58.62,12.09s25.94,13.73,38.22,21.45A40.861,40.861,0,0,1,611.85,266.3Z" transform="translate(-110.8 -68.873)" fill="#316bff" opacity="0.5"/>
      <path id="Path_140" data-name="Path 140" d="M550,338.46c.64,7.15-9.33,6-10.29-1.19-.26-1.88-.41-3.76-.57-5.55-1.9-21.87-10.53-44-19.65-65.34-2.23-5.24-16.44-21.28-20.76-25,10.17,10.88,29.65,34.55,35.61,48.09s10.17,27.54,14.17,41.48a41.873,41.873,0,0,1,1.49,7.51Z" transform="translate(-105.091 -67.136)" fill="#316bff"/>
      <path id="Path_141" data-name="Path 141" d="M556,96.57a1.15,1.15,0,0,1-.62.18c-.39,0-.67-.4-.84-.76-.89-1.94-.38-4.46-1.75-6.09a20.731,20.731,0,0,0-3.34,5.59l-5.25-1.62a7.84,7.84,0,0,0,1,6,8.251,8.251,0,0,0-2.47,1.68,2.75,2.75,0,0,0-.64,2.78,13.22,13.22,0,0,0,3.71.37,24.22,24.22,0,0,0,.39,6.9,1.26,1.26,0,0,0,.45.87c.39.25.89,0,1.28-.21a12.18,12.18,0,0,0,4.32-4.58l2,4.66a2,2,0,0,0,.87,1.17,1.41,1.41,0,0,0,1.64-.56,4.3,4.3,0,0,0,.58-1.77l.73-4.44a1.06,1.06,0,0,1,.24-.63,1.13,1.13,0,0,1,.77-.22c1.86-.05,3.71-.07,5.56-.06.32-1-.67-1.9-1.61-2.31s-2.08-.73-2.55-1.65c-1-1.87,1.53-4.48.47-6.1C559.59,93.9,557.57,95.77,556,96.57Z" transform="translate(-110.026 -78.56)" fill="#316bff"/>
      <path id="Path_142" data-name="Path 142" d="M571.79,312.73a1.421,1.421,0,0,1-.62.18c-.4,0-.68-.4-.84-.76-.9-1.94-.38-4.46-1.76-6.1a21.479,21.479,0,0,0-3.34,5.6L560,310a7.82,7.82,0,0,0,1,6,8.17,8.17,0,0,0-2.48,1.68,2.75,2.75,0,0,0-.64,2.78,13.6,13.6,0,0,0,3.71.37,24.5,24.5,0,0,0,.39,6.89,1.32,1.32,0,0,0,.45.88,1.27,1.27,0,0,0,1.28-.21,12.18,12.18,0,0,0,4.32-4.58l2,4.66a2.12,2.12,0,0,0,.87,1.17,1.42,1.42,0,0,0,1.64-.57,4,4,0,0,0,.58-1.77l.73-4.43a.83.83,0,0,1,1-.85c1.85-.06,3.7-.07,5.55-.06.32-1-.66-1.9-1.61-2.31s-2.07-.73-2.55-1.65c-1-1.88,1.54-4.49.47-6.1C575.42,310.05,573.4,311.92,571.79,312.73Z" transform="translate(-112.544 -64.27)" fill="#316bff" opacity="0.2"/>
      <path id="Path_143" data-name="Path 143" d="M616.26,167.83a1.25,1.25,0,0,1-.61.19,1.13,1.13,0,0,1-.84-.76c-.9-1.95-.38-4.46-1.76-6.1a20.79,20.79,0,0,0-3.34,5.6l-5.25-1.63a7.86,7.86,0,0,0,1,6,8.069,8.069,0,0,0-2.47,1.68,2.74,2.74,0,0,0-.64,2.77,13.221,13.221,0,0,0,3.71.37,24.2,24.2,0,0,0,.39,6.9,1.32,1.32,0,0,0,.45.88,1.28,1.28,0,0,0,1.28-.22,12.23,12.23,0,0,0,4.32-4.57l2,4.66a2.06,2.06,0,0,0,.87,1.16,1.4,1.4,0,0,0,1.64-.56,4.16,4.16,0,0,0,.58-1.77l.73-4.44a1.06,1.06,0,0,1,.24-.62,1.11,1.11,0,0,1,.78-.23c1.85,0,3.7-.07,5.55,0,.32-1-.66-1.9-1.61-2.32s-2.07-.72-2.55-1.64c-1-1.88,1.54-4.49.47-6.1C619.9,165.16,617.88,167,616.26,167.83Z" transform="translate(-119.643 -78.56)" fill="#316bff"/>
      <path id="Path_144" data-name="Path 144" d="M438.44,334.41a1.78,1.78,0,0,1-.86.25c-.56,0-.94-.56-1.17-1.06-1.25-2.71-.53-6.21-2.45-8.49a29.06,29.06,0,0,0-4.65,7.8L422,330.64a10.84,10.84,0,0,0,1.39,8.38,11.439,11.439,0,0,0-3.45,2.34,3.84,3.84,0,0,0-.89,3.87,18.67,18.67,0,0,0,5.16.52,34.059,34.059,0,0,0,.55,9.61,1.35,1.35,0,0,0,2.41.92,16.92,16.92,0,0,0,6-6.38l2.72,6.5a2.87,2.87,0,0,0,1.21,1.62,1.93,1.93,0,0,0,2.28-.78,5.691,5.691,0,0,0,.81-2.47l1-6.18a1.55,1.55,0,0,1,.33-.87,1.52,1.52,0,0,1,1.08-.31c2.58-.08,5.17-.1,7.75-.08.44-1.37-.93-2.65-2.25-3.23s-2.89-1-3.55-2.29c-1.35-2.62,2.14-6.25.66-8.5C443.51,330.68,440.69,333.29,438.44,334.41Z" transform="translate(-90.876 -62.876)" fill="#316bff"/>
      <path id="Path_145" data-name="Path 145" d="M364.45,172.16a1.78,1.78,0,0,1-.86.25c-.55,0-.94-.55-1.17-1.06-1.25-2.7-.53-6.21-2.45-8.49a29.209,29.209,0,0,0-4.65,7.8L348,168.39a10.88,10.88,0,0,0,1.38,8.38,11.41,11.41,0,0,0-3.45,2.35,3.83,3.83,0,0,0-.89,3.87,18.661,18.661,0,0,0,5.16.51,34.43,34.43,0,0,0,.55,9.61,1.8,1.8,0,0,0,.63,1.22,1.76,1.76,0,0,0,1.78-.29,17,17,0,0,0,6-6.38l2.72,6.49a2.93,2.93,0,0,0,1.21,1.63,2,2,0,0,0,2.28-.79,5.56,5.56,0,0,0,.81-2.46l1-6.19a1.49,1.49,0,0,1,.34-.87,1.54,1.54,0,0,1,1.08-.31q3.87-.1,7.74-.08c.44-1.37-.93-2.65-2.25-3.23s-2.89-1-3.54-2.29c-1.35-2.61,2.13-6.25.65-8.5C369.52,168.43,366.71,171,364.45,172.16Z" transform="translate(-78.971 -78.56)" fill="#316bff"/>
      <path id="Path_146" data-name="Path 146" d="M589,272.63a.88.88,0,0,1-.46.14c-.3,0-.5-.3-.62-.56-.67-1.44-.28-3.3-1.3-4.52a15.309,15.309,0,0,0-2.47,4.15l-3.89-1.21a5.83,5.83,0,0,0,.73,4.46,5.71,5.71,0,0,0-1.82,1.24,2,2,0,0,0-.48,2.06,10.12,10.12,0,0,0,2.74.27,18.18,18.18,0,0,0,.3,5.1.9.9,0,0,0,.33.65c.28.18.66,0,1-.15a9.11,9.11,0,0,0,3.19-3.39l1.45,3.45a1.52,1.52,0,0,0,.64.86,1,1,0,0,0,1.21-.42,3,3,0,0,0,.43-1.31l.54-3.28a.85.85,0,0,1,.18-.47.83.83,0,0,1,.58-.16c1.37,0,2.74-.05,4.11,0,.23-.73-.5-1.41-1.2-1.72s-1.53-.53-1.88-1.21c-.72-1.39,1.13-3.32.35-4.52C591.65,270.65,590.15,272,589,272.63Z" transform="translate(-115.413 -66.776)" fill="#316bff" opacity="0.2"/>
      <path id="Path_147" data-name="Path 147" d="M488.45,330.66a1.07,1.07,0,0,1-.46.14c-.29,0-.49-.3-.62-.57-.66-1.44-.28-3.3-1.3-4.51a15.51,15.51,0,0,0-2.47,4.14l-3.88-1.2a5.76,5.76,0,0,0,.73,4.45,6,6,0,0,0-1.83,1.25,2,2,0,0,0-.48,2.05,10.2,10.2,0,0,0,2.75.28,17.83,17.83,0,0,0,.29,5.1,1,1,0,0,0,.33.65.94.94,0,0,0,.95-.16,9,9,0,0,0,3.2-3.39l1.44,3.45a1.56,1.56,0,0,0,.65.87,1.05,1.05,0,0,0,1.21-.42,3.119,3.119,0,0,0,.43-1.31l.54-3.29a.78.78,0,0,1,.18-.46.8.8,0,0,1,.57-.16c1.37,0,2.74-.06,4.11-.05.24-.72-.49-1.4-1.19-1.71s-1.53-.54-1.89-1.22c-.71-1.39,1.14-3.32.35-4.51C491.14,328.68,489.65,330.07,488.45,330.66Z" transform="translate(-99.447 -63.16)" fill="#316bff" opacity="0.2"/>
      <path id="Path_148" data-name="Path 148" d="M391.19,127.56a1,1,0,0,1-.46.14c-.3,0-.5-.3-.62-.56-.67-1.44-.28-3.3-1.3-4.52a15.309,15.309,0,0,0-2.47,4.15l-3.89-1.21a5.79,5.79,0,0,0,.74,4.46,5.64,5.64,0,0,0-1.83,1.24,2,2,0,0,0-.48,2.05,9.75,9.75,0,0,0,2.74.28,18.18,18.18,0,0,0,.3,5.1.94.94,0,0,0,.33.65c.28.18.66,0,.95-.15a9.11,9.11,0,0,0,3.19-3.39l1.45,3.45a1.52,1.52,0,0,0,.64.86,1,1,0,0,0,1.21-.42,3,3,0,0,0,.43-1.31l.54-3.28a.85.85,0,0,1,.18-.47.83.83,0,0,1,.58-.16c1.37,0,2.74-.05,4.11,0,.23-.73-.5-1.41-1.2-1.72s-1.53-.53-1.88-1.21c-.72-1.39,1.13-3.32.35-4.52C393.88,125.58,392.38,127,391.19,127.56Z" transform="translate(-84.007 -78.56)" fill="#316bff" opacity="0.5"/>
      <path id="Path_149" data-name="Path 149" d="M443,242a.91.91,0,0,1-.45.14c-.3,0-.5-.3-.63-.56-.66-1.44-.28-3.3-1.29-4.52a15.6,15.6,0,0,0-2.48,4.15L434.22,240a5.83,5.83,0,0,0,.73,4.46,5.87,5.87,0,0,0-1.83,1.24,2,2,0,0,0-.47,2,9.71,9.71,0,0,0,2.74.28,18.561,18.561,0,0,0,.29,5.1.91.91,0,0,0,.34.65c.28.18.66,0,.94-.15a9.05,9.05,0,0,0,3.2-3.39l1.45,3.45a1.52,1.52,0,0,0,.64.86,1,1,0,0,0,1.21-.42,3.08,3.08,0,0,0,.43-1.31l.54-3.28a.85.85,0,0,1,.18-.47.8.8,0,0,1,.57-.16h4.12c.23-.73-.5-1.41-1.2-1.72s-1.53-.53-1.88-1.21c-.72-1.39,1.13-3.32.35-4.52C445.65,240,444.15,241.42,443,242Z" transform="translate(-92.226 -68.685)" fill="#316bff" opacity="0.5"/>
      <path id="Path_150" data-name="Path 150" d="M405.38,197.4a.9.9,0,0,1-.45.13c-.3,0-.5-.29-.63-.56-.66-1.44-.28-3.3-1.3-4.51a15.51,15.51,0,0,0-2.47,4.14l-3.88-1.2a5.8,5.8,0,0,0,.73,4.45,6.1,6.1,0,0,0-1.83,1.24,2,2,0,0,0-.47,2.06,9.7,9.7,0,0,0,2.74.27,18.25,18.25,0,0,0,.29,5.11,1,1,0,0,0,.34.65c.28.18.65,0,.94-.16a9.05,9.05,0,0,0,3.2-3.39l1.45,3.45a1.49,1.49,0,0,0,.64.86,1,1,0,0,0,1.21-.41,3.171,3.171,0,0,0,.43-1.31l.54-3.29a.82.82,0,0,1,.18-.46.81.81,0,0,1,.57-.17c1.37,0,2.74-.05,4.11,0,.24-.73-.49-1.4-1.19-1.71s-1.53-.54-1.88-1.22c-.72-1.39,1.13-3.32.34-4.52C408.08,195.42,406.58,196.8,405.38,197.4Z" transform="translate(-86.26 -78.56)" fill="#316bff" opacity="0.5"/>
      <path id="Path_151" data-name="Path 151" d="M566.75,207.9a.91.91,0,0,1-.45.14c-.3,0-.5-.3-.62-.57-.67-1.43-.29-3.3-1.3-4.51a15.309,15.309,0,0,0-2.47,4.15L558,205.9a5.8,5.8,0,0,0,.73,4.45,6.07,6.07,0,0,0-1.83,1.25,2,2,0,0,0-.47,2.05,10.089,10.089,0,0,0,2.74.28,18.559,18.559,0,0,0,.29,5.1.94.94,0,0,0,.34.65c.28.18.66,0,.94-.16a8.91,8.91,0,0,0,3.2-3.39l1.45,3.45a1.55,1.55,0,0,0,.64.87,1,1,0,0,0,1.21-.42,3.121,3.121,0,0,0,.43-1.31l.54-3.28a.851.851,0,0,1,.18-.47.8.8,0,0,1,.57-.16c1.37,0,2.75-.05,4.12,0,.23-.73-.5-1.41-1.2-1.72s-1.53-.54-1.88-1.22c-.72-1.39,1.13-3.32.35-4.51C569.45,205.92,568,207.31,566.75,207.9Z" transform="translate(-111.875 -78.56)" fill="#316bff" opacity="0.5"/>
      <path id="Path_152" data-name="Path 152" d="M488.45,199.12a1,1,0,0,1-.46.14c-.29,0-.49-.3-.62-.56-.66-1.44-.28-3.3-1.3-4.52a15.569,15.569,0,0,0-2.47,4.15l-3.88-1.21a5.79,5.79,0,0,0,.73,4.46,5.75,5.75,0,0,0-1.83,1.24,2,2,0,0,0-.48,2.05,9.82,9.82,0,0,0,2.75.28,17.81,17.81,0,0,0,.29,5.1.94.94,0,0,0,.33.65,1,1,0,0,0,.95-.15,9.13,9.13,0,0,0,3.2-3.39l1.44,3.45a1.54,1.54,0,0,0,.65.86,1,1,0,0,0,1.21-.42,3.08,3.08,0,0,0,.43-1.31l.54-3.28a.78.78,0,0,1,.18-.47.8.8,0,0,1,.57-.16c1.37,0,2.74-.05,4.11,0,.24-.73-.49-1.41-1.19-1.72s-1.53-.53-1.89-1.21c-.71-1.39,1.14-3.32.35-4.52C491.14,197.14,489.65,198.53,488.45,199.12Z" transform="translate(-99.447 -78.56)" fill="#316bff" opacity="0.2"/>
      <path id="Path_153" data-name="Path 153" d="M463.88,209.81a1,1,0,0,1-.46.14c-.29,0-.5-.3-.62-.56-.66-1.44-.28-3.31-1.3-4.52A15.57,15.57,0,0,0,459,209l-3.89-1.21a5.79,5.79,0,0,0,.74,4.46,5.75,5.75,0,0,0-1.83,1.24,2,2,0,0,0-.48,2.05,9.82,9.82,0,0,0,2.75.28,17.81,17.81,0,0,0,.29,5.1.94.94,0,0,0,.33.65,1,1,0,0,0,.95-.15,9.13,9.13,0,0,0,3.2-3.39l1.44,3.45a1.56,1.56,0,0,0,.64.86,1,1,0,0,0,1.22-.42,2.94,2.94,0,0,0,.42-1.31l.54-3.28a.93.93,0,0,1,.18-.47.83.83,0,0,1,.58-.16c1.37,0,2.74-.05,4.11,0,.24-.73-.49-1.41-1.19-1.72s-1.54-.53-1.89-1.21c-.71-1.39,1.14-3.32.35-4.52C466.57,207.83,465.08,209.22,463.88,209.81Z" transform="translate(-95.542 -78.56)" fill="#316bff" opacity="0.3"/>
      <path id="Path_154" data-name="Path 154" d="M441,145.12a1,1,0,0,1-.46.14c-.3,0-.5-.3-.62-.57-.66-1.43-.28-3.3-1.3-4.51a15.41,15.41,0,0,0-2.47,4.14l-3.89-1.2a5.76,5.76,0,0,0,.74,4.45,5.83,5.83,0,0,0-1.83,1.25,2,2,0,0,0-.48,2.05,10.13,10.13,0,0,0,2.74.28,18.2,18.2,0,0,0,.3,5.1.94.94,0,0,0,.33.65c.28.18.66,0,.95-.16a9,9,0,0,0,3.19-3.39l1.45,3.45a1.55,1.55,0,0,0,.64.87,1,1,0,0,0,1.21-.42,3,3,0,0,0,.43-1.31l.54-3.28a.85.85,0,0,1,.18-.47.83.83,0,0,1,.58-.16c1.37,0,2.74-.06,4.11-.05.23-.72-.49-1.4-1.2-1.71s-1.53-.54-1.88-1.22c-.72-1.39,1.13-3.32.35-4.51C443.67,143.14,442.17,144.53,441,145.12Z" transform="translate(-91.914 -78.56)" fill="#316bff" opacity="0.2"/>
      <path id="Path_155" data-name="Path 155" d="M486.09,229.54a.91.91,0,0,1-.46.13c-.29,0-.49-.29-.62-.56-.66-1.44-.28-3.3-1.3-4.51a15.509,15.509,0,0,0-2.47,4.14l-3.88-1.2a5.76,5.76,0,0,0,.73,4.45,6.1,6.1,0,0,0-1.83,1.24,2,2,0,0,0-.47,2.06,9.7,9.7,0,0,0,2.74.27,18.25,18.25,0,0,0,.29,5.11,1,1,0,0,0,.33.65.94.94,0,0,0,1-.16,9.06,9.06,0,0,0,3.2-3.39l1.44,3.45a1.61,1.61,0,0,0,.65.87,1.05,1.05,0,0,0,1.21-.42,3.12,3.12,0,0,0,.43-1.31l.54-3.29a.85.85,0,0,1,.18-.46.81.81,0,0,1,.57-.17c1.37,0,2.74-.05,4.11,0,.24-.73-.49-1.4-1.19-1.71s-1.53-.54-1.88-1.22c-.72-1.39,1.13-3.32.34-4.51C488.79,227.56,487.29,228.94,486.09,229.54Z" transform="translate(-99.076 -69.461)" fill="#316bff" opacity="0.3"/>
    </g>
    <circle id="Ellipse_96" data-name="Ellipse 96" cx="203.044" cy="203.044" r="203.044" transform="translate(534.575 3711.344)" fill="#316bff"/>
    <path id="Path_616" data-name="Path 616" d="M311.706,718.975l-71.559-92,41.614-32.366,33.879,43.561L430.094,517.351l38.275,36.256Z" transform="translate(383.361 3296.226)" fill="#fff"/>
  </g>
</svg>
