<svg id="bold" enable-background="new 0 0 24 24" height="512" viewBox="0 0 24 24" width="512" xmlns="http://www.w3.org/2000/svg"><circle cx="5" cy="7" r="2"/><path d="m9.5 17.5c0-3.898 2.804-7.149 6.5-7.854v-6.646c0-1.654-1.346-3-3-3h-10c-1.654 0-3 1.346-3 3v14c0 1.654 1.346 3 3 3h6.906c-.26-.788-.406-1.626-.406-2.5zm-4.76-5.32c-.66-.66-1.82-.66-2.48 0l-.26.259v-9.439c0-.552.448-1 1-1h10c.552 0 1 .448 1 1v6.439l-.76-.76c-.684-.684-1.797-.684-2.48 0l-4.76 4.76z"/><path d="m17.5 11c-3.584 0-6.5 2.916-6.5 6.5s2.916 6.5 6.5 6.5 6.5-2.916 6.5-6.5-2.916-6.5-6.5-6.5zm2.75 7.5h-1.75v1.75c0 .553-.447 1-1 1s-1-.447-1-1v-1.75h-1.75c-.553 0-1-.447-1-1s.447-1 1-1h1.75v-1.75c0-.553.447-1 1-1s1 .447 1 1v1.75h1.75c.553 0 1 .447 1 1s-.447 1-1 1z"/></svg>